<svg width="18" height="19" viewBox="0 0 18 19" fill="none" xmlns="http://www.w3.org/2000/svg">
<g clip-path="url(#clip0)">
<path d="M7.15283 11.0417C5.50403 9.3963 5.13174 7.7509 5.04775 7.09167C5.02428 6.90939 5.08714 6.72659 5.21781 6.5971L6.5521 5.26615C6.74837 5.0704 6.78321 4.76533 6.63609 4.53054L4.51165 1.23855C4.34889 0.978555 4.0147 0.884721 3.73997 1.02188L0.329491 2.62477C0.107325 2.73394 -0.0233492 2.9695 0.00187526 3.21535C0.180575 4.90949 0.920687 9.07412 5.02184 13.1671C9.12299 17.2601 13.2956 17.9984 14.9942 18.1767C15.2405 18.2019 15.4766 18.0715 15.5859 17.8498L17.1922 14.4463C17.3291 14.1728 17.2357 13.8402 16.9762 13.6774L13.6774 11.558C13.4423 11.411 13.1366 11.4455 12.9403 11.6412L11.6066 12.9727C11.4768 13.1031 11.2937 13.1659 11.111 13.1424C10.4504 13.0586 8.80163 12.6871 7.15283 11.0417Z" fill="white"/>
<path d="M13.7001 10.1556C13.3711 10.1556 13.1044 9.88951 13.1044 9.56121C13.1016 7.10013 11.1031 5.10572 8.63692 5.10294C8.30795 5.10294 8.04126 4.8368 8.04126 4.5085C8.04126 4.1802 8.30795 3.91406 8.63692 3.91406C11.7608 3.9175 14.2923 6.4438 14.2957 9.56121C14.2957 9.88951 14.029 10.1556 13.7001 10.1556Z" fill="white"/>
<path d="M16.6784 10.1552C16.3494 10.1552 16.0827 9.88904 16.0827 9.56074C16.0781 5.45891 12.7472 2.13487 8.63692 2.13028C8.30795 2.13028 8.04126 1.86414 8.04126 1.53584C8.04126 1.20754 8.30795 0.941406 8.63692 0.941406C13.4049 0.946648 17.2688 4.80259 17.2741 9.56074C17.2741 9.7184 17.2113 9.86959 17.0996 9.98107C16.9879 10.0926 16.8364 10.1552 16.6784 10.1552Z" fill="white"/>
</g>
<defs>
<clipPath id="clip0">
<rect width="17.2743" height="17.2387" fill="white" transform="translate(0 0.941406)"/>
</clipPath>
</defs>
</svg>
