<svg viewBox="0 0 22 23" fill="none" xmlns="http://www.w3.org/2000/svg">
<g clip-path="url(#clip0)">
<path d="M11.1241 22.3787C11.0518 22.3787 10.9796 22.3787 10.9068 22.3784C9.19663 22.3825 7.61643 22.3391 6.07968 22.2455C4.67077 22.1598 3.3847 21.6729 2.36031 20.8376C1.37187 20.0316 0.696877 18.9418 0.354137 17.5988C0.0558417 16.4296 0.040028 15.2818 0.0248801 14.1717C0.0138938 13.3752 0.00257457 12.4314 0.000244141 11.4716C0.00257457 10.5078 0.0138938 9.56396 0.0248801 8.76745C0.040028 7.65749 0.0558417 6.50975 0.354137 5.34038C0.696877 3.99738 1.37187 2.90757 2.36031 2.10157C3.3847 1.26627 4.67077 0.77938 6.07984 0.693653C7.6166 0.60027 9.19713 0.556657 10.911 0.560819C12.6217 0.557156 14.2014 0.60027 15.7382 0.693653C17.1471 0.77938 18.4331 1.26627 19.4575 2.10157C20.4461 2.90757 21.121 3.99738 21.4637 5.34038C21.762 6.50959 21.7778 7.65749 21.793 8.76745C21.8039 9.56396 21.8154 10.5078 21.8176 11.4676C21.8154 12.4314 21.8039 13.3752 21.793 14.1717C21.7866 14.6425 21.3978 15.0187 20.9292 15.0123C20.4585 15.0059 20.0823 14.619 20.0886 14.1484C20.0994 13.3566 20.1109 12.4189 20.113 11.4676C20.1109 10.5203 20.0994 9.5826 20.0886 8.79075C20.0748 7.78017 20.0604 6.73514 19.8121 5.76185C19.5616 4.78007 19.0798 3.99305 18.3804 3.42259C17.6238 2.80553 16.7 2.45979 15.6346 2.39504C14.134 2.30382 12.5892 2.2617 10.911 2.2652C9.22876 2.2612 7.68385 2.30382 6.18322 2.39504C5.11788 2.45979 4.19419 2.80553 3.43747 3.42243C2.738 3.99288 2.25627 4.77991 2.00575 5.76185C1.75739 6.73514 1.74308 7.78017 1.72926 8.79075C1.71844 9.5826 1.70712 10.5203 1.70479 11.4716C1.70712 12.4189 1.71844 13.3566 1.72926 14.1484C1.74308 15.159 1.75739 16.204 2.00575 17.1773C2.25627 18.1591 2.738 18.9461 3.43747 19.5166C4.19419 20.1336 5.11788 20.4794 6.18322 20.5441C7.68385 20.6354 9.22909 20.678 10.907 20.6738C12.5894 20.6778 14.134 20.6354 15.6346 20.5441C16.7 20.4794 17.6236 20.1336 18.3804 19.5166C18.8842 19.1056 19.2779 18.5782 19.5504 17.949C19.7375 17.5172 20.2392 17.3186 20.6712 17.5057C21.1031 17.6928 21.3016 18.1946 21.1146 18.6265C20.7326 19.5086 20.1751 20.2525 19.4575 20.8376C18.4331 21.6731 17.1471 22.1598 15.7382 22.2455C14.2665 22.3351 12.7547 22.3787 11.1241 22.3787ZM16.1929 11.4696C16.1929 8.53241 13.8034 6.14288 10.8662 6.14288C7.92921 6.14288 5.53952 8.53241 5.53952 11.4696C5.53952 14.4068 7.92921 16.7963 10.8662 16.7963C13.8034 16.7963 16.1929 14.4068 16.1929 11.4696ZM14.4884 11.4696C14.4884 13.4668 12.8636 15.0918 10.8662 15.0918C8.86904 15.0918 7.24406 13.4668 7.24406 11.4696C7.24406 9.4724 8.86904 7.84742 10.8662 7.84742C12.8636 7.84742 14.4884 9.4724 14.4884 11.4696ZM16.7895 4.43833C16.0836 4.43833 15.5111 5.01062 15.5111 5.71674C15.5111 6.42286 16.0836 6.99515 16.7895 6.99515C17.4956 6.99515 18.0679 6.42286 18.0679 5.71674C18.0679 5.01062 17.4956 4.43833 16.7895 4.43833Z" fill="currentColor"/>
</g>
<defs>
<clipPath id="clip0">
<rect width="21.8182" height="21.8182" fill="currentColor" transform="translate(0.000244141 0.560547)"/>
</clipPath>
</defs>
</svg>
