<svg width="29" height="25" viewBox="0 0 29 25" fill="none" xmlns="http://www.w3.org/2000/svg">
<path d="M24.4008 0.900391H4.59918C2.06333 0.900391 0 2.96372 0 5.49957V19.5012C0 22.037 2.06333 24.1004 4.59918 24.1004H24.4008C26.9367 24.1004 29 22.037 29 19.5012V5.49957C29 2.96372 26.9367 0.900391 24.4008 0.900391ZM24.2117 3.38614L14.4993 10.927L4.78676 3.38614H24.2117ZM26.5144 19.5012C26.5144 20.6667 25.5665 21.6146 24.401 21.6146H4.59918C3.43362 21.6146 2.48575 20.6667 2.48575 19.5012V5.49957C2.48575 5.26689 2.53269 5.04703 2.60243 4.83748L13.7371 13.4823C13.9613 13.6562 14.2303 13.7433 14.4994 13.7433C14.7685 13.7433 15.0375 13.6562 15.2617 13.4823L26.3977 4.83648C26.4676 5.0462 26.5146 5.26656 26.5146 5.49957V19.5012H26.5144Z" fill="#505050"/>
</svg>
