<svg width="48" height="46" viewBox="0 0 48 46" fill="none" xmlns="http://www.w3.org/2000/svg">
<path d="M7.02938 31.6954C9.64341 29.0815 12.7548 27.1464 16.1495 25.975C12.5137 23.4708 10.125 19.2799 10.125 14.541C10.125 6.89036 16.3493 0.666016 24 0.666016C31.6507 0.666016 37.875 6.89036 37.875 14.541C37.875 19.2799 35.4863 23.4708 31.8504 25.975C35.2451 27.1464 38.3565 29.0815 40.9705 31.6954C45.5035 36.2285 48 42.2554 48 48.666H44.25C44.25 37.5001 35.1659 28.416 24 28.416C12.8341 28.416 3.75 37.5001 3.75 48.666H0C0 42.2554 2.49647 36.2285 7.02938 31.6954ZM24 24.666C29.5829 24.666 34.125 20.124 34.125 14.541C34.125 8.95802 29.5829 4.41602 24 4.41602C18.4171 4.41602 13.875 8.95802 13.875 14.541C13.875 20.124 18.4171 24.666 24 24.666Z" fill="white"/>
</svg>
