<svg width="24" height="25" viewBox="0 0 24 25" fill="none" xmlns="http://www.w3.org/2000/svg">
<g clip-path="url(#clip0)">
<path d="M21.1018 3.24549C19.2047 1.38557 16.1376 0.484377 11.9841 0.565583C7.7961 0.647952 4.9966 1.38304 3.17401 2.879C1.4118 4.32528 0.591064 6.4416 0.591064 9.53917V12.7005C0.591064 16.3573 2.55058 20.3775 6.29569 20.9858C6.72805 21.0566 7.13535 20.7626 7.20555 20.3302C7.27576 19.8979 6.98224 19.4905 6.54988 19.4203C3.70967 18.959 2.17712 15.6138 2.17712 12.7005V9.53917C2.17712 5.09758 3.82292 2.31236 12.0152 2.15122C15.7292 2.07762 18.4099 2.82741 19.9913 4.37793C21.2237 5.5864 21.8228 7.2746 21.8228 9.53917V12.7005C21.8228 17.4876 19.6741 19.5991 14.1631 20.2208H10.2552C10.0449 20.2208 9.84317 20.3044 9.6945 20.4531L6.941 23.2066C6.6313 23.5163 6.6313 24.0185 6.941 24.3282C7.0958 24.483 7.29881 24.5605 7.50172 24.5605C7.70463 24.5605 7.90765 24.4831 8.06245 24.3282L10.5837 21.8069H14.2074C14.2365 21.8069 14.2658 21.8053 14.2949 21.802C17.4488 21.4517 19.6086 20.6309 21.0916 19.2187C22.6509 17.7337 23.4089 15.6016 23.4089 12.7004V9.53917C23.4089 6.86413 22.6327 4.74664 21.1018 3.24549Z" fill="white"/>
<path d="M12.495 5.74123C12.4951 5.74123 12.4951 5.74123 12.4954 5.74123C13.7732 5.74123 14.9746 6.23893 15.8782 7.14256C16.7819 8.0463 17.2796 9.24789 17.2795 10.5259C17.2795 10.9639 17.6345 11.319 18.0725 11.319C18.0726 11.319 18.0726 11.319 18.0726 11.319C18.5105 11.319 18.8656 10.964 18.8656 10.526C18.8657 8.82431 18.203 7.2244 16.9998 6.02111C15.7966 4.81782 14.197 4.15527 12.4954 4.15527C12.4952 4.15527 12.4949 4.15527 12.4948 4.15527C12.0569 4.15527 11.7019 4.51034 11.7019 4.9483C11.702 5.38616 12.0571 5.74123 12.495 5.74123Z" fill="white"/>
<path d="M12.4948 8.52942C13.5953 8.52963 14.4908 9.42501 14.4909 10.5254C14.491 10.9634 14.846 11.3184 15.2841 11.3183C15.7221 11.3183 16.0771 10.9632 16.077 10.5252C16.0767 8.55046 14.4699 6.94368 12.495 6.94336H12.4949C12.057 6.94336 11.702 7.29832 11.7019 7.73628C11.7019 8.17424 12.0569 8.52942 12.4948 8.52942Z" fill="white"/>
<path d="M8.93894 9.88917C8.57743 10.1364 8.4847 10.6299 8.73181 10.9914C8.97891 11.3529 9.47249 11.4455 9.83401 11.1984C10.1183 11.0041 10.7843 10.5488 10.7375 9.63858C10.7079 9.09382 10.2166 8.31602 9.80958 7.75941C9.21428 6.94503 8.70125 6.45451 8.28792 6.30246C7.90198 6.15877 7.49838 6.1557 7.08749 6.29358C6.23641 6.58034 5.61848 7.09856 5.30064 7.79219C4.99114 8.46743 4.99802 9.24344 5.32062 10.0368C6.08256 11.906 7.14924 13.5425 8.49813 14.9078C9.85632 16.2495 11.4927 17.3161 13.3627 18.0785C13.7673 18.2431 14.1676 18.3255 14.5524 18.3255C14.9214 18.3255 15.2762 18.2498 15.6067 18.0983C16.3004 17.7803 16.8185 17.1625 17.1055 16.3104C17.243 15.9004 17.2399 15.497 17.0974 15.1137C16.9443 14.6975 16.4537 14.1845 15.6394 13.5892C15.0827 13.1822 14.3049 12.6909 13.758 12.6612C12.8497 12.6155 12.3949 13.2803 12.2005 13.5646C11.9533 13.9261 12.0458 14.4196 12.4073 14.6669C12.769 14.9142 13.2623 14.8216 13.5096 14.4601C13.5959 14.3339 13.6452 14.2766 13.6734 14.2516C14.1186 14.3942 15.388 15.3268 15.6165 15.6842C15.6221 15.707 15.6233 15.7418 15.6022 15.8052C15.5022 16.1022 15.3071 16.491 14.946 16.6566C14.6077 16.8114 14.2234 16.7164 13.9609 16.6097C12.2853 15.9266 10.8224 14.9744 9.61957 13.7862C8.42464 12.5767 7.47248 11.1138 6.78973 9.43884C6.68273 9.17576 6.58767 8.7912 6.74257 8.45326C6.90805 8.09217 7.29695 7.89698 7.59302 7.79716C7.65625 7.77602 7.69104 7.77718 7.71514 7.78299C8.07264 8.01192 9.00471 9.28055 9.14746 9.72581C9.12229 9.75362 9.06509 9.803 8.93894 9.88917Z" fill="white"/>
</g>
<defs>
<clipPath id="clip0">
<rect width="24" height="24" fill="white" transform="translate(0 0.560547)"/>
</clipPath>
</defs>
</svg>
