<svg viewBox="0 0 23 23" xmlns="http://www.w3.org/2000/svg">
<g clip-path="url(#clip0)">
<path d="M11.8178 0.560547C5.92196 0.560547 1.12549 5.35721 1.12549 11.253C1.12549 13.5605 2.06206 15.6323 2.46482 16.4161C2.65233 16.7811 3.10036 16.9247 3.46518 16.7373C3.8301 16.5498 3.97393 16.1019 3.78642 15.737C3.43319 15.0494 2.61142 13.2361 2.61142 11.2529C2.61132 6.1765 6.74135 2.04638 11.8178 2.04638C16.8948 2.04638 21.0252 6.1765 21.0252 11.253C21.0252 16.3297 16.8948 20.4598 11.8178 20.4598C9.83238 20.4598 8.25472 19.7724 7.66851 19.4767C7.49466 19.3889 7.29328 19.3731 7.10785 19.4324L2.42827 20.9279C2.03749 21.0528 1.82185 21.4708 1.94676 21.8617C2.0476 22.1773 2.33981 22.3786 2.65421 22.3786C2.7292 22.3786 2.80537 22.3672 2.88056 22.3432L7.27773 20.938C8.19766 21.365 9.81682 21.9457 11.8178 21.9457C17.714 21.9457 22.511 17.149 22.511 11.253C22.511 5.35721 17.714 0.560547 11.8178 0.560547Z"/>
<path d="M9.7098 9.42995C9.3844 9.67987 9.32328 10.1462 9.5731 10.4717C9.82302 10.7971 10.2893 10.8583 10.6149 10.6084C10.8426 10.4335 11.4475 9.96891 11.359 9.13794C11.3044 8.64395 10.8224 7.96611 10.4277 7.4846C9.85006 6.77992 9.36112 6.3626 8.97718 6.24512C8.61741 6.13358 8.24873 6.15121 7.88103 6.29762C7.12465 6.59993 6.59083 7.10076 6.33725 7.74601C6.09031 8.37442 6.13518 9.07761 6.46731 9.78031C7.24262 11.4169 8.27884 12.8303 9.54725 13.9816C9.5522 13.9862 9.55725 13.9908 9.5623 13.9953C10.8487 15.1325 12.3707 16.0086 14.0867 16.5998C14.4123 16.7116 14.7318 16.7674 15.0387 16.7674C15.4242 16.7674 15.7898 16.6794 16.1224 16.5041C16.7356 16.1808 17.1744 15.5951 17.3917 14.8088C17.4963 14.4276 17.4729 14.0595 17.3234 13.7168C17.163 13.3458 16.6944 12.9061 15.9303 12.4099C15.4084 12.071 14.6821 11.667 14.1829 11.667C14.1826 11.667 14.1823 11.667 14.1819 11.667C13.3492 11.6704 12.9539 12.3229 12.8051 12.5686C12.5925 12.9196 12.7046 13.3764 13.0556 13.589C13.4064 13.8016 13.8633 13.6895 14.076 13.3385C14.1347 13.2414 14.172 13.1899 14.1953 13.163C14.6149 13.2848 15.7373 14.019 15.9673 14.328C15.9711 14.3444 15.9716 14.3693 15.9592 14.4145C15.886 14.6795 15.7346 15.0291 15.4294 15.1899C15.1442 15.3401 14.8041 15.2754 14.5699 15.195C13.0431 14.669 11.692 13.8932 10.5538 12.8891C10.5536 12.8888 10.5532 12.8885 10.5529 12.8881C9.4259 11.867 8.5031 10.6075 7.81021 9.14497C7.70412 8.92031 7.60219 8.58957 7.72007 8.28972C7.84627 7.96859 8.17701 7.77959 8.43158 7.67786C8.47527 7.66042 8.49993 7.65775 8.51786 7.66013C8.85049 7.85477 9.70346 8.88861 9.87096 9.29227C9.84679 9.31832 9.79964 9.36091 9.7098 9.42995Z"/>
</g>
<defs>
<clipPath id="clip0">
<rect width="21.8182" height="21.8182" transform="translate(0.90918 0.560547)"/>
</clipPath>
</defs>
</svg>
