<?xml version="1.0" standalone="no"?>
<!DOCTYPE svg PUBLIC "-//W3C//DTD SVG 20010904//EN"
 "http://www.w3.org/TR/2001/REC-SVG-20010904/DTD/svg10.dtd">
<svg version="1.0" xmlns="http://www.w3.org/2000/svg"
 width="198.000000pt" height="198.000000pt" viewBox="0 0 198.000000 198.000000"
 preserveAspectRatio="xMidYMid meet">
<metadata>
Created by potrace 1.14, written by Peter Selinger 2001-2017
</metadata>
<g transform="translate(0.000000,198.000000) scale(0.100000,-0.100000)"
fill="#000000" stroke="none">
<path d="M162 1088 c3 -882 3 -891 23 -895 11 -2 31 -5 45 -8 14 -2 25 -4 25
-5 0 -1 7 -3 15 -5 8 -1 33 -7 55 -13 38 -11 50 -13 120 -27 17 -3 48 -11 70
-17 22 -6 47 -13 55 -14 8 -2 74 -17 145 -34 72 -17 139 -33 150 -35 11 -3 43
-10 71 -16 41 -9 63 -8 120 5 91 22 100 24 164 37 30 6 62 14 70 17 19 6 26 8
70 16 34 7 60 13 70 16 3 1 10 3 15 4 6 1 24 5 40 9 33 8 67 16 105 23 14 3
39 9 55 14 17 5 46 12 65 15 19 3 54 11 78 17 l42 10 0 889 0 889 -835 0 -835
0 2 -892z"/>
</g>
</svg>
