<?xml version="1.0" encoding="utf-8"?><svg viewBox="0 0 1058 1231" xmlns="http://www.w3.org/2000/svg" xmlns:xlink="http://www.w3.org/1999/xlink"><style>:root>svg{display:none}:root>svg:target{display:block}</style><svg fill="none" viewBox="0 0 21 21" id="calendar" xmlns="http://www.w3.org/2000/svg"><path d="M17.771 17.763H4.025c-.962 0-1.75-.788-1.75-1.75V6.396c0-.962.788-1.75 1.75-1.75h13.746c.963 0 1.75.788 1.75 1.75v9.617a1.75 1.75 0 01-1.75 1.75zM2.275 7.963h17.246M6.773 6.03V3.15M15.024 6.03V3.15" stroke="#121212" stroke-width="1.608" stroke-miterlimit="10" stroke-linecap="round" stroke-linejoin="round"/></svg><svg viewBox="0 0 12 12" fill="none" id="checkmark" xmlns="http://www.w3.org/2000/svg"><g clip-path="url(#bclip0)" fill="currentColor"><path d="M5.5 11.492a5.506 5.506 0 01-5.5-5.5C0 2.96 2.467.492 5.5.492c1.054 0 2.08.3 2.967.87a.376.376 0 01-.406.631 4.73 4.73 0 00-2.561-.75A4.755 4.755 0 00.75 5.991c0 2.619 2.13 4.75 4.75 4.75a4.755 4.755 0 004.728-5.214.375.375 0 11.746-.072A5.506 5.506 0 015.5 11.492z"/><path d="M6.125 7.243a.372.372 0 01-.265-.11l-2.25-2.25a.375.375 0 01.53-.53l1.985 1.984 5.235-5.234a.375.375 0 01.53.53l-5.5 5.5a.376.376 0 01-.265.11z"/></g><defs><clipPath id="bclip0"><path fill="#fff" d="M0 0h12v12H0z"/></clipPath></defs></svg><svg fill="none" viewBox="0 0 37 37" id="compass" xmlns="http://www.w3.org/2000/svg"><path fill-rule="evenodd" clip-rule="evenodd" d="M18.292 0A18.239 18.239 0 000 18.292a18.239 18.239 0 0018.292 18.291 18.239 18.239 0 0018.291-18.291A18.239 18.239 0 0018.292 0zm0 33.258A14.904 14.904 0 013.326 18.291 14.904 14.904 0 0118.292 3.326a14.904 14.904 0 0114.966 14.966 14.904 14.904 0 01-14.966 14.965zm6.485-23.613L14.3 13.137c-.5.166-.998.665-1.164 1.164L9.645 24.943c-.167.665 0 1.33.332 1.663.333.333.665.499 1.164.499.167 0 .333 0 .5-.166l10.642-3.492c.498-.167.831-.5.997-.998l3.492-10.643c.167-.665 0-1.33-.332-1.662-.333-.5-.998-.666-1.663-.5zm-4.324 10.808l-6.651 2.162 2.162-6.651 6.651-2.162-2.162 6.651z" fill="currentColor"/></svg><svg fill="none" viewBox="0 0 24 24" id="cross" xmlns="http://www.w3.org/2000/svg"><path d="M13.326 12l10.4-10.4A.938.938 0 0022.4.275L12 10.675 1.6.274A.937.937 0 10.275 1.6l10.4 10.4-10.4 10.4A.938.938 0 101.6 23.726L12 13.325l10.4 10.4a.935.935 0 001.325 0 .938.938 0 000-1.326L13.325 12z" fill="#4A4A4A"/></svg><svg viewBox="0 0 15 10" fill="none" id="down-arrow" xmlns="http://www.w3.org/2000/svg"><path d="M1 1.547l6.253 7.147 6.254-7.147" stroke="#121212" stroke-width="1.608" stroke-miterlimit="10" stroke-linecap="round" stroke-linejoin="round"/></svg><svg fill="none" viewBox="0 0 1058 1231" id="feedback-bg" xmlns="http://www.w3.org/2000/svg"><path d="M124.428 1069.06l2.941-21.44-3.781-9.66-4.199-5.04-5.882-11.35-15.966-15.97 14.705 4.62 15.544 17.23-1.261 3.79 4.624 3.78 2.101 7.14 9.244 7.99 2.52-1.26v4.62l4.202 6.3 3.359.42v3.37l7.986 12.19 10.503 7.98 4.202 12.19-8.823-5.05-7.564-10.08-6.72-3.78-2.941-9.25-7.143-5.04-3.362-7.99-7.562-4.2.835 10.08-7.562 8.41zM898.54 646.07l7.143 3.151 1.68-2.101 2.731 2.942 5.252.63 1.47-2.308.631-9.247-3.99-.631-.84-1.052 2.31-1.471-.84-1.68-3.15.631-6.094-5.463h-6.091l-3.362 2.102-.631 5.046.838 2.942 2.519.837 2.311 2.942-1.887 2.73zm-72.544-83.914l6.238 2.083h3.863l-.596-2.379 2.379-1.784-2.08-1.485-7.129-.297-2.675 3.862zM551.293 800.093l10.082-7.985 33.191-8.826 31.93-4.624 18.067-21.012 20.587-18.912 15.964-2.52 2.941-11.346-2.941-11.767 5.46-16.392 4.202-5.462-1.261-6.724-10.081 5.883-6.722 13.029-10.082 10.506-13.025 7.985-4.202 3.78-3.781-3.78-2.52 7.143-10.084 7.566-2.52-2.942-3.781 6.305-13.444 8.404-9.663 1.259-7.983 3.782.838 2.521-6.301 2.52-.421-3.779-3.362 2.101-8.402 2.521 2.101 2.101-7.143 6.305-12.183-.84-5.882 5.465-2.941 4.622-6.722 3.782 7.562-.84-5.882 7.145.84 4.622 8.823-7.564-7.562 8.825 6.303 7.143zm188.224 67.24l11.343-5.884 3.778 1.262.422-6.724 2.519-3.363v-3.78l3.781-10.086-5.461-5.884-6.721 2.52-6.304 5.884 5.882 7.145-6.719 4.201-3.362 7.145.842 7.564zm284.643-632.695l-9.87 6.514-4.2 10.927 5.67 8.616-2.73 10.087-6.52 2.942-.63 9.875 3.15 3.782-7.14 7.773-2.938 5.674 3.358 11.137-2.515 5.674-.421 11.558-3.991 4.412-7.143 1.893-3.571 7.564-5.882 4.833-1.892 30.68.84 3.151-1.471 9.244 1.89 3.363-5.67 14.288v9.456l5.251 3.363.209 9.245-7.352 4.834 3.362 14.918 6.091 6.724 2.104 12.398 6.091 7.564-8.192 13.868-8.19 19.962-36.132 43.075-5.461 15.13.421 2.102-6.094 3.363-3.15 6.724 2.52 2.52 1.049 2.521 2.941-.422-3.99 4.834 4.2-1.049 1.47 4.622-6.091.421 3.362 3.575-5.673 8.404v1.681l6.722 3.363-2.52 6.933-5.46 2.101 2.101 3.154-3.151 2.73-11.343.633-15.966-3.575-3.15-2.308 5.882-6.934 2.941-.211v-2.312l2.308-.837-1.049-4.413 1.47-2.733 3.572-2.101-2.52-1.683-.21-2.73 7.353-4.834-6.931-1.261-5.882-6.303 6.091 1.471-5.042-5.464 2.52-6.515 5.461 5.044-1.68-5.672 3.362.84-.212-2.523-5.251-4.412-2.101-11.768-13.235 4.834-7.352-.421-6.092 4.834-1.891 3.154-16.176 13.868-2.52 10.927-7.985 12.189-.838 7.145-12.604 21.851-12.185 14.709 1.261 4.204-7.143 8.404 15.966-7.985 1.259-3.364 42.856-17.65 12.602 13.026 5.882 15.549 2.103 31.52-9.663 10.508-2.941-1.683-2.519 6.724-7.144 4.203-5.042-.421-4.621 7.985-7.985 4.625-7.141-.841-6.303-7.985-7.564-.84-15.124 13.026-1.261 3.782-15.966 15.971 1.261 2.101-14.284 12.608-13.865 7.563 1.68 5.463.421 4.624 3.363-.421 4.199 6.721-5.042 10.087-5.042 1.262 1.68 7.142-8.823 3.364-4.2 5.883.419 5.043-36.55 25.217-8.823 16.811-10.084 6.305-4.621 4.201-18.486 10.508-12.604-1.262-.838-4.622-2.52 4.201-18.067-1.68-2.103 3.363-22.688 11.767-1.259 5.462-10.926 10.087-33.189 10.085-3.781 5.462-36.972 24.796-1.261 19.331-7.562 16.813-10.084 5.043-12.185-7.566-.84-4.201-6.719-.421 1.258-5.044-4.199-.421-2.941 7.985-.84-5.462-7.153 5.039v-5.463l-3.36 3.782-1.261-3.782-3.362 4.204-4.621-2.942-2.103-4.203-2.52 5.883-2.941-.838-2.101 3.78-3.781-1.68v2.941l-9.242-.421-2.941 5.462-3.778 8.826-3.362-2.942-10.084 8.83v9.66l1.261 1.26.837 6.3-2.941 2.11 1.683 4.2 5.042 6.72 3.362 5.89-6.303 7.98-3.363-.42-.421 7.15-2.101-2.52-2.52 13.02-3.781 4.63-9.241 17.23 2.941-5.47 6.719 8.41.84 6.3-15.545 9.67 3.781-16.82-3.781 17.23-3.36 10.51-14.283 16.82-9.244 19.75-12.602 4.2-1.261-2.52-4.621 5.88-10.926 4.2-.838-2.1-5.882.42-5.882 5.05-20.587 7.56-9.244.84-11.343 10.51-22.269 6.3-25.208 3.78-26.89 10.93-8.402.42-10.084 9.67-10.082 1.68s-7.985 8.4-9.244 10.5c-1.261 2.11-27.309-7.56-27.309-7.56l-18.067 7.14-16.385-10.08-8.823 3.78-27.73-6.72-4.2-7.15-8.822 1.68-9.244-9.24-9.663 1.26-15.127-15.13-11.763-1.68-24.366-15.13-1.261-7.99 3.15-9.87 17.858 1.05 6.091-2.95 3.574 1.68 18.696-6.09 20.796-2.52 16.806-7.35 23.528-3.58.212 2.52 3.571-3.15 5.673-.42 2.101 2.73 5.461-1.68 7.773.84 7.555-1.26 7.774.64 3.574 3.36 14.705-12.4.63-4.41 3.572-5.67 5.037.42 2.732-1.9 7.143.84 11.343 8.2 32.772-17.45 3.359-.41 2.104 2.1 7.562-.21 6.931-5.05 4.833-.21 5.042-3.78 2.31-10.3 3.781-4.62 3.99-.21 13.865-11.77 6.094.42 5.249-9.03 15.757-14.5 16.175-23.53 2.101-9.67 14.494-17.23 13.025-21.223.63-3.782 9.244-12.817 6.303-13.238 14.075-11.345 8.19-2.733 2.732-3.78 17.015-6.933 2.52 1.259.84-2.311 22.688-15.758 12.604-2.102 5.67-3.782 23.107-27.526-1.68-10.505 5.882 2.942 3.15-3.154-2.308-1.05v-1.264l2.52-.421-.212-2.942 14.284-8.404 5.044-.421 1.89-3.782 2.522-1.68.837-4.204-.837-3.363 1.68-9.663 4.621-2.942 1.682-5.464 7.562-1.259-.421-4.203 13.025-7.565-5.042-2.101 1.258-4.203-6.303-1.681 2.104-4.624-7.143 3.782 4.623-8.404-18.486 10.084 4.621-11.346 5.882-.421-1.259-6.305 10.924-2.942.84-10.084 17.225-10.929 5.042-13.869 11.764-6.305 2.941-6.303 16.806-7.566 8.823-10.506 2.103 1.259 29.41-19.752.421-3.363 15.126-6.305 3.36-11.767-3.778-3.363 1.258-10.506 15.545-30.258 47.896-39.924 7.562-2.941 9.244-11.346 10.924-2.104.421-5.044 11.343-9.246 5.461-9.247 5.044-2.102-2.103-3.363 2.52-18.912 5.044.21 3.572-10.718 1.682.421 3.779-13.868-1.471-6.724.212-4.622 9.872-9.245 13.444-18.281-1.259-5.674 9.454-9.666 4.832-.419 1.259-4.412-3.36-3.152 2.308-11.976 2.732-2.942-1.261-3.782 3.362-4.834-2.31-5.253 11.554-21.223 12.814-11.767-.84-2.521 6.722-6.093v-2.101l5.251-9.457 2.101.419v-4.203l6.722-9.875 3.362-13.659 2.52-.84-1.261-9.878 5.461-4.831 2.103-5.253-3.574-5.884 5.673-12.607 7.143-.21-1.052-4.412 1.892-9.878 5.461-2.73.211-4.834-5.251-3.991-.209-3.782 10.293-7.145 6.72-11.348 15.545-2.942-.21-9.035-2.731-3.572 12.185-20.172.421.631 5.461-39.083-2.101-11.346 2.519-6.724 4.621-2.102-2.52-5.043 2.942-3.782-3.781-2.523 2.103-2.102-5.047-3.351-2.941-5.883 4.202-1.262-5.461-6.724 7.562-10.505-4.202-8.826 4.202-4.203-1.261-4.622 23.528-5.884 3.781-16.391 10.505-6.303 23.107-27.737 10.082-.84-2.101-5.044L1015.97.766l11.76 7.564-1.26 10.505 20.59 12.608 5.88 10.086-6.3 5.044 8.82 5.883 1.68 7.145-6.72 3.782-2.1 9.247-9.66 8.826-3.37 11.767 7.15 4.622-7.57 5.043.42 8.826 10.93 5.043-11.34 3.782-4.63 20.592 1.68 2.102-3.78 12.607-5.46 7.145 5.05 7.986-1.26 13.028-12.19 13.027.84 6.723 5.88 7.145-4.2 2.942 7.35 20.802z" fill="#C6ECFF" stroke="#0978AB" stroke-linecap="round" stroke-linejoin="round"/></svg><svg fill="none" viewBox="0 0 63 47" id="feedback-shape" xmlns="http://www.w3.org/2000/svg"><path fill-rule="evenodd" clip-rule="evenodd" d="M36.566 27.565V46.77h25.938V20.786H52.111c0-5.745 4.061-12.814 10.38-15.197L59.906 0c-13.646 2.7-23.34 12.745-23.34 27.565zm-36.42 0V46.77h25.938V20.787H15.735c0-5.745 4.061-12.815 10.383-15.197L23.53 0C9.884 2.7.145 12.746.145 27.567z" fill="#468ACC"/></svg><svg fill="none" viewBox="0 0 16 16" id="house" xmlns="http://www.w3.org/2000/svg"><path d="M15.569 6.96l-.001-.002L9.04.432A1.463 1.463 0 007.999 0c-.393 0-.763.153-1.041.432L.434 6.955a1.475 1.475 0 001.019 2.518h.26v4.803c0 .95.774 1.724 1.724 1.724h2.554c.259 0 .469-.21.469-.469v-3.765c0-.434.353-.787.786-.787h1.506c.434 0 .787.353.787.787v3.765c0 .26.21.469.469.469h2.553c.95 0 1.724-.773 1.724-1.724V9.473h.241c.394 0 .764-.153 1.042-.431a1.475 1.475 0 000-2.083v0zm-.664 1.419a.532.532 0 01-.379.157h-.71a.469.469 0 00-.468.468v5.272a.787.787 0 01-.787.787h-2.085v-3.297c0-.95-.773-1.724-1.724-1.724H7.246c-.95 0-1.724.773-1.724 1.724v3.296H3.437a.787.787 0 01-.786-.786V9.004a.469.469 0 00-.469-.468h-.698a.532.532 0 01-.39-.157.536.536 0 010-.758s0 0 0 0h0l6.527-6.527a.531.531 0 01.757 0l6.525 6.525.003.003a.537.537 0 01-.001.757v0z" fill="#121212" stroke="#121212"/></svg><svg viewBox="0 0 22 23" fill="none" id="instagram" xmlns="http://www.w3.org/2000/svg"><g clip-path="url(#iclip0)"><path d="M11.124 22.379h-.217c-1.71.003-3.29-.04-4.827-.134-1.41-.085-2.695-.572-3.72-1.407-.988-.806-1.663-1.896-2.006-3.24-.298-1.168-.314-2.316-.33-3.426-.01-.797-.021-1.74-.024-2.7.003-.964.014-1.908.025-2.705.015-1.11.03-2.257.33-3.427.342-1.343 1.017-2.432 2.005-3.238C3.385 1.266 4.67.779 6.08.694A76.016 76.016 0 0110.91.56c1.71-.004 3.29.04 4.827.133 1.41.085 2.695.572 3.72 1.408.988.806 1.663 1.895 2.006 3.238.298 1.17.314 2.317.329 3.427.01.797.022 1.74.025 2.7-.003.964-.014 1.908-.025 2.705a.853.853 0 01-1.704-.024c.01-.791.022-1.73.024-2.68-.002-.948-.014-1.885-.024-2.677-.014-1.01-.029-2.056-.277-3.03-.25-.98-.732-1.768-1.432-2.338-.756-.617-1.68-.963-2.745-1.028a74.718 74.718 0 00-4.724-.13 74.395 74.395 0 00-4.728.13c-1.065.065-1.989.41-2.746 1.027-.699.57-1.18 1.358-1.431 2.34-.249.973-.263 2.018-.277 3.029-.01.792-.022 1.73-.024 2.68.002.948.013 1.886.024 2.677.014 1.011.028 2.056.277 3.03.25.981.732 1.768 1.431 2.339.757.617 1.68.962 2.746 1.027 1.5.091 3.046.134 4.724.13a74.33 74.33 0 004.728-.13c1.065-.065 1.989-.41 2.745-1.027a4.096 4.096 0 001.17-1.568.852.852 0 011.565.677 5.78 5.78 0 01-1.657 2.212c-1.025.835-2.31 1.322-3.72 1.407a75.41 75.41 0 01-4.614.134zm5.069-10.91a5.333 5.333 0 00-5.327-5.326A5.333 5.333 0 005.54 11.47a5.333 5.333 0 005.326 5.326 5.333 5.333 0 005.327-5.326zm-1.705 0a3.626 3.626 0 01-3.622 3.623 3.626 3.626 0 01-3.622-3.622 3.626 3.626 0 013.622-3.623 3.626 3.626 0 013.622 3.623zm2.302-7.03a1.278 1.278 0 100 2.556 1.278 1.278 0 000-2.557z" fill="currentColor"/></g><defs><clipPath id="iclip0"><path fill="currentColor" transform="translate(0 .56)" d="M0 0h21.818v21.818H0z"/></clipPath></defs></svg><svg fill="none" viewBox="0 0 47 37" id="light" xmlns="http://www.w3.org/2000/svg"><path d="M36.332 28.605a1.503 1.503 0 01-1.035-.43 1.462 1.462 0 01-.438-1.022 11.606 11.606 0 00-3.457-8.27 11.937 11.937 0 00-8.375-3.438 11.937 11.937 0 00-8.387 3.41 11.608 11.608 0 00-3.485 8.26c0 .384-.155.754-.431 1.026a1.483 1.483 0 01-2.083 0 1.442 1.442 0 01-.432-1.027 14.421 14.421 0 01.968-5.75 14.579 14.579 0 013.17-4.918 14.815 14.815 0 014.87-3.304 14.986 14.986 0 0111.581 0 14.816 14.816 0 014.869 3.304 14.58 14.58 0 013.17 4.919 14.423 14.423 0 01.968 5.75 1.435 1.435 0 01-.417 1.051 1.474 1.474 0 01-1.056.44zM37.707 14.816a1.413 1.413 0 01-1.04-.426 1.431 1.431 0 01-.44-1.026 1.415 1.415 0 01.44-1.027l4.182-4.144a1.484 1.484 0 012.046.035 1.441 1.441 0 01.036 2.017l-4.183 4.145a1.455 1.455 0 01-1.04.426zM8.327 14.816a1.472 1.472 0 01-1.04-.426l-4.184-4.145a1.432 1.432 0 01-.439-1.026 1.416 1.416 0 01.44-1.027 1.483 1.483 0 012.08 0l4.184 4.145a1.442 1.442 0 010 2.053 1.434 1.434 0 01-1.04.426zM23.018 8.6a1.463 1.463 0 01-1.01-.441 1.423 1.423 0 01-.404-1.012V1.453c0-.386.155-.755.431-1.028a1.483 1.483 0 012.083 0c.276.273.431.642.431 1.028v5.694a1.436 1.436 0 01-.452 1.048 1.476 1.476 0 01-1.08.404z" fill="#4C65AD"/><path d="M44.561 28.606H1.473c-.39 0-.765-.153-1.042-.426a1.443 1.443 0 010-2.054c.277-.273.651-.426 1.042-.426H44.56c.39 0 .765.153 1.042.426a1.443 1.443 0 010 2.054c-.277.273-.651.426-1.042.426zM37.707 36.489H8.248c-.39 0-.765-.153-1.041-.426a1.443 1.443 0 010-2.055c.276-.272.65-.425 1.041-.425h29.459c.39 0 .765.153 1.041.425a1.443 1.443 0 010 2.055c-.276.273-.65.426-1.041.426z" fill="#4C65AD"/></svg><svg fill="none" viewBox="0 0 48 48" id="magnifier" xmlns="http://www.w3.org/2000/svg"><g clip-path="url(#kclip0)" fill="#B9DDFF"><path d="M47.45 44.799L33.908 31.256c6.17-7.507 5.75-18.65-1.261-25.662-7.459-7.459-19.595-7.459-27.053 0-7.46 7.459-7.46 19.595 0 27.053 7.009 7.01 18.151 7.434 25.662 1.261l13.542 13.543a1.875 1.875 0 102.652-2.652zM29.995 29.995c-5.997 5.996-15.753 5.996-21.75 0C2.25 24 2.25 14.242 8.246 8.246c5.997-5.996 15.753-5.996 21.75 0 5.996 5.996 5.996 15.753 0 21.75z"/><path d="M28.304 17.245h-7.307V9.938a1.875 1.875 0 00-3.75 0v7.307H9.938a1.875 1.875 0 100 3.75h7.307v7.307a1.875 1.875 0 003.751 0v-7.306h7.307a1.875 1.875 0 100-3.751z"/></g><defs><clipPath id="kclip0"><path fill="#fff" d="M0 0h48v48H0z"/></clipPath></defs></svg><svg fill="none" viewBox="0 0 29 25" id="mail" xmlns="http://www.w3.org/2000/svg"><path d="M24.4.9H4.6A4.605 4.605 0 000 5.5V19.5c0 2.536 2.063 4.6 4.6 4.6h19.8c2.537 0 4.6-2.064 4.6-4.6V5.5C29 2.964 26.937.9 24.4.9zm-.188 2.486l-9.713 7.541-9.712-7.54h19.425zm2.302 16.115a2.116 2.116 0 01-2.113 2.114H4.599A2.116 2.116 0 012.486 19.5V5.5c0-.233.047-.453.116-.663l11.135 8.645a1.242 1.242 0 001.525 0l11.136-8.646c.07.21.117.43.117.664V19.5z" fill="#505050"/></svg><svg fill="none" viewBox="0 0 29 27" id="map" xmlns="http://www.w3.org/2000/svg"><path d="M14.592 21.582a3.024 3.024 0 01-1.267-.285 2.985 2.985 0 01-1.024-.789c-2.063-2.464-5.5-7.267-5.5-11.822 0-2.039.82-3.994 2.281-5.435A7.847 7.847 0 0114.592 1c2.067 0 4.049.81 5.51 2.251a7.633 7.633 0 012.282 5.435c0 4.52-3.438 9.358-5.489 11.822-.28.335-.631.605-1.03.791a3.022 3.022 0 01-1.273.283zm0-18.887a6.127 6.127 0 00-4.29 1.758 5.96 5.96 0 00-1.783 4.233c0 4.024 3.197 8.454 5.1 10.737a1.281 1.281 0 00.973.442 1.299 1.299 0 00.974-.442c1.902-2.26 5.1-6.713 5.1-10.737a5.96 5.96 0 00-1.783-4.233 6.127 6.127 0 00-4.29-1.758z" fill="#505050" stroke="#505050" stroke-width=".5"/><path d="M14.592 11.633c-.582 0-1.151-.17-1.634-.49a2.902 2.902 0 01-1.08-1.297 2.847 2.847 0 01-.167-1.666c.113-.56.391-1.075.802-1.48.41-.404.934-.68 1.505-.793a2.982 2.982 0 011.7.166c.538.22.997.59 1.319 1.066l.414-.28-.414.28a2.858 2.858 0 01-.365 3.645c-.55.543-1.298.849-2.08.849zm0-5.131c-.441 0-.874.129-1.242.372a2.223 2.223 0 00-.828.995 2.196 2.196 0 00.488 2.421 2.263 2.263 0 002.438.48c.409-.167.76-.45 1.007-.816a2.201 2.201 0 00-.28-2.805 2.244 2.244 0 00-1.583-.647z" fill="#505050" stroke="#505050"/><path d="M25.215 26.645H3.97a3.024 3.024 0 01-1.411-.36 2.975 2.975 0 01-1.071-.975 2.924 2.924 0 01-.245-2.779l2.383-5.402c.232-.524.613-.97 1.098-1.283a3.009 3.009 0 011.63-.48h3.895v1.695H6.353c-.244 0-.482.07-.686.203a1.236 1.236 0 00-.46.543l-2.394 5.402a1.206 1.206 0 00.103 1.13 1.254 1.254 0 001.054.566h21.244c.21 0 .416-.052.6-.151s.34-.241.455-.414a1.211 1.211 0 00.103-1.13l-2.395-5.403a1.236 1.236 0 00-.46-.543 1.261 1.261 0 00-.686-.203h-3.884v-1.696h3.884c.58 0 1.146.166 1.631.48.485.313.866.76 1.096 1.283l2.384 5.403a2.87 2.87 0 01-.23 2.78c-.271.41-.642.746-1.078.979a3.023 3.023 0 01-1.42.355z" fill="#505050" stroke="#505050" stroke-width=".5"/></svg><svg fill="none" viewBox="0 0 25 6" id="more-arrow" xmlns="http://www.w3.org/2000/svg"><path d="M24.127 3.373a.308.308 0 000-.435l-1.96-1.96a.308.308 0 10-.434.435l1.741 1.742-1.741 1.742a.308.308 0 10.435.436l1.96-1.96zM.99 3.463h22.92v-.616H.99v.616z" fill="#9B9B9B"/></svg><svg fill="none" viewBox="0 0 27 28" id="phone" xmlns="http://www.w3.org/2000/svg"><path d="M14.63 3.066h.001c2.481 0 4.814.963 6.569 2.71a9.17 9.17 0 012.72 6.541c0 .847.69 1.534 1.54 1.534.85 0 1.54-.687 1.54-1.534a12.21 12.21 0 00-3.623-8.71A12.313 12.313 0 0014.631 0c-.851 0-1.54.686-1.54 1.533 0 .847.69 1.533 1.54 1.533z" fill="#505050"/><path d="M14.574 8.656c2.058 0 3.732 1.668 3.732 3.717a1.48 1.48 0 001.484 1.477 1.48 1.48 0 001.483-1.477c-.001-3.677-3.006-6.67-6.699-6.67A1.48 1.48 0 0013.09 7.18a1.48 1.48 0 001.483 1.476zM7.56 11.273a1.54 1.54 0 00-.406 2.146 1.555 1.555 0 002.156.403c.556-.378 1.858-1.265 1.767-3.037-.058-1.06-1.02-2.575-1.815-3.66C8.098 5.54 7.094 4.586 6.286 4.29c-.755-.28-1.544-.286-2.347-.018C2.274 4.83 1.066 5.84.444 7.19c-.605 1.314-.592 2.826.04 4.37 1.49 3.64 3.575 6.827 6.213 9.486 2.656 2.613 5.856 4.69 9.513 6.174.792.32 1.575.481 2.327.481a4.93 4.93 0 002.062-.442c1.356-.62 2.37-1.823 2.93-3.482.27-.798.264-1.584-.015-2.33-.3-.81-1.259-1.81-2.851-2.969-1.089-.792-2.61-1.75-3.68-1.807-1.776-.089-2.665 1.206-3.045 1.76a1.54 1.54 0 00.404 2.146 1.555 1.555 0 002.156-.403c.168-.246.265-.357.32-.406.87.278 3.353 2.094 3.8 2.79.01.044.013.112-.028.235-.196.579-.577 1.336-1.283 1.658-.662.302-1.413.117-1.927-.091-3.277-1.33-6.137-3.184-8.49-5.498-2.337-2.356-4.199-5.204-5.534-8.466-.209-.512-.395-1.261-.092-1.92.324-.702 1.084-1.082 1.663-1.277.124-.041.192-.039.239-.027.7.445 2.522 2.916 2.801 3.783-.05.054-.161.15-.408.318z" fill="#505050"/></svg><svg fill="none" viewBox="0 0 42 36" id="restaurant" xmlns="http://www.w3.org/2000/svg"><path d="M20.62 35.501H3.17c-.84 0-1.647-.33-2.241-.916A3.105 3.105 0 010 32.375V8.484A3.08 3.08 0 01.588 6.67a3.15 3.15 0 011.55-1.135L17.774.176a3.231 3.231 0 012.881.393c.412.29.746.675.976 1.12.23.444.35.936.347 1.435v31.037a1.307 1.307 0 01-.393.953 1.343 1.343 0 01-.966.387zM18.806 2.677h-.145L3.026 8.037a.453.453 0 00-.308.412v23.925c0 .119.048.232.132.316.085.084.2.131.32.131h16.09V3.124a.405.405 0 00-.18-.357.476.476 0 00-.273-.09z" fill="#4C65AD"/><path d="M38.05 35.502H20.62c-.361 0-.707-.142-.962-.393a1.33 1.33 0 010-1.895c.255-.252.6-.393.961-.393h17.43c.12 0 .236-.047.32-.13a.443.443 0 00.133-.317V18.08a.425.425 0 00-.29-.411l-18.118-6.2a1.364 1.364 0 01-.824-.71 1.326 1.326 0 01-.028-1.077 1.336 1.336 0 01.724-.802 1.375 1.375 0 011.088-.02l18.119 6.182a3.184 3.184 0 011.532 1.144c.38.528.585 1.158.588 1.805v14.294a3.09 3.09 0 01-.921 2.295c-.304.301-.666.538-1.065.696-.4.159-.827.235-1.258.225z" fill="#4C65AD"/><path d="M32.85 28.318h-5.183c-.36 0-.706-.141-.96-.392a1.33 1.33 0 01-.399-.948V21.85c0-.356.144-.696.398-.948.255-.251.601-.392.961-.392h5.182c.36.004.702.147.956.397s.399.589.403.943v5.128c-.004.354-.15.692-.403.942-.254.25-.597.393-.956.398zm-3.86-2.68h2.464v-2.412H28.99v2.412zM8.28 28.319c-.36 0-.706-.142-.96-.393a1.33 1.33 0 01-.399-.948v-14.17c0-.355.143-.695.398-.947a1.368 1.368 0 011.922 0c.255.252.398.592.398.948v14.17c-.005.353-.15.692-.403.942-.254.25-.597.393-.956.398zM13.716 28.318c-.36 0-.706-.141-.961-.392a1.33 1.33 0 01-.398-.948V11.022c0-.356.143-.697.398-.948a1.369 1.369 0 011.922 0c.255.252.398.592.398.948v15.956c-.005.354-.15.692-.403.942-.254.25-.597.393-.956.398z" fill="#4C65AD"/></svg><svg fill="none" viewBox="0 0 9 5" id="shape-down" xmlns="http://www.w3.org/2000/svg"><path d="M8.836.56L4.828 4.265.82.561h8.016z" fill="#fff"/></svg><svg fill="none" viewBox="0 0 36 40" id="umbrella" xmlns="http://www.w3.org/2000/svg"><path d="M4.365 28.66a.981.981 0 01-.31 0 1.168 1.168 0 01-.433-.218 1.23 1.23 0 01-.316-.38c-2.279-4.121-2.899-9.02-1.725-13.62S5.627 5.918 9.565 3.534C13.504 1.15 18.186.5 22.582 1.729c4.396 1.228 8.146 4.234 10.424 8.355a1.318 1.318 0 01.13.972 1.34 1.34 0 01-.57.768L4.985 28.489a1.353 1.353 0 01-.62.17zM18.14 3.67a14.161 14.161 0 00-7.09 1.893 14.967 14.967 0 00-5.334 5.241 15.848 15.848 0 00-2.252 7.285 15.968 15.968 0 001.39 7.517l25.381-15.352a14.902 14.902 0 00-5.272-4.851A14.149 14.149 0 0018.14 3.67z" fill="#4C65AD" stroke="#4C65AD"/><path d="M28.344 38.791a1.197 1.197 0 01-.612-.177 1.27 1.27 0 01-.447-.47L17.097 19.686a1.332 1.332 0 01-.122-.971c.084-.328.289-.608.57-.777.28-.17.615-.216.928-.128.313.088.58.303.743.597l10.188 18.524c.149.291.184.631.1.95-.086.317-.285.588-.557.756a1.243 1.243 0 01-.603.154z" fill="#4C65AD" stroke="#4C65AD"/><path d="M33.3 38.793H12.68c-.325 0-.636-.135-.865-.375a1.312 1.312 0 01-.358-.905c0-.34.128-.666.358-.906.229-.24.54-.375.864-.375H33.3c.325 0 .636.135.865.375.23.24.358.566.358.906 0 .34-.128.665-.358.905-.229.24-.54.375-.864.375zM23.633 17.012a1.146 1.146 0 01-.59-.13 1.208 1.208 0 01-.453-.416 21.86 21.86 0 00-5.334-6.636 20.775 20.775 0 00-7.364-3.974 1.197 1.197 0 01-.446-.208 1.259 1.259 0 01-.332-.374 1.318 1.318 0 01-.14-.99c.042-.167.116-.323.216-.46.1-.135.227-.249.37-.333a1.185 1.185 0 01.951-.108 23.007 23.007 0 018.206 4.362 24.207 24.207 0 015.96 7.339c.157.284.202.62.126.94a1.26 1.26 0 01-.534.766c-.188.133-.408.21-.636.222z" fill="#4C65AD" stroke="#4C65AD"/><path d="M12.679 23.646a1.197 1.197 0 01-.624-.18 1.27 1.27 0 01-.452-.485 25.346 25.346 0 01-3.093-9.11 25.706 25.706 0 01.5-9.653 1.29 1.29 0 01.575-.772c.28-.168.612-.216.926-.132.155.043.3.119.428.221.127.103.234.23.315.376a1.322 1.322 0 01.12.972 22.944 22.944 0 00-.422 8.643 22.613 22.613 0 002.803 8.142c.146.295.176.638.085.956a1.27 1.27 0 01-.575.75c-.165.149-.37.244-.586.272z" fill="#4C65AD" stroke="#4C65AD"/></svg><svg fill="none" viewBox="0 0 34 38" id="user" xmlns="http://www.w3.org/2000/svg"><path fill-rule="evenodd" clip-rule="evenodd" d="M33.45 31.592v3.716c0 1.115-.743 1.859-1.858 1.859-1.115 0-1.859-.744-1.859-1.859v-3.716c0-3.16-2.416-5.575-5.575-5.575H9.292c-3.16 0-5.575 2.416-5.575 5.575v3.716c0 1.115-.744 1.859-1.859 1.859S0 36.423 0 35.308v-3.716C0 26.388 4.088 22.3 9.292 22.3h14.866c5.204 0 9.292 4.088 9.292 9.292zM7.433 9.292C7.433 4.088 11.522 0 16.725 0c5.203 0 9.292 4.088 9.292 9.292 0 5.203-4.089 9.291-9.292 9.291-5.203 0-9.292-4.088-9.292-9.291zm3.717 0c0 3.159 2.416 5.575 5.575 5.575 3.16 0 5.575-2.416 5.575-5.575 0-3.16-2.416-5.575-5.575-5.575-3.16 0-5.575 2.416-5.575 5.575z" fill="#4C65AD"/></svg><svg viewBox="0 0 15 16" fill="none" id="user-2" xmlns="http://www.w3.org/2000/svg"><path fill-rule="evenodd" clip-rule="evenodd" d="M14.55 12.892v1.516c0 .455-.303.759-.758.759s-.759-.304-.759-.759v-1.516c0-1.29-.986-2.275-2.275-2.275H4.692c-1.29 0-2.275.986-2.275 2.275v1.516c0 .455-.304.759-.759.759S.9 14.863.9 14.408v-1.516A3.755 3.755 0 014.692 9.1h6.066a3.755 3.755 0 013.792 3.792zm-10.617-9.1A3.755 3.755 0 017.725 0a3.755 3.755 0 013.792 3.792 3.755 3.755 0 01-3.792 3.791 3.755 3.755 0 01-3.792-3.791zm1.517 0c0 1.289.986 2.275 2.275 2.275C9.015 6.067 10 5.08 10 3.792c0-1.29-.986-2.275-2.275-2.275-1.29 0-2.275.985-2.275 2.275z" fill="#121212"/></svg><svg fill="none" viewBox="0 0 48 46" id="user-3" xmlns="http://www.w3.org/2000/svg"><path d="M7.03 31.695a23.908 23.908 0 019.12-5.72c-3.636-2.504-6.025-6.695-6.025-11.434C10.125 6.891 16.349.666 24 .666c7.65 0 13.875 6.224 13.875 13.875 0 4.739-2.389 8.93-6.025 11.434a23.908 23.908 0 019.12 5.72A23.843 23.843 0 0148 48.666h-3.75c0-11.166-9.084-20.25-20.25-20.25S3.75 37.5 3.75 48.666H0c0-6.41 2.496-12.438 7.03-16.97zM24 24.666c5.583 0 10.125-4.542 10.125-10.125S29.583 4.416 24 4.416 13.875 8.958 13.875 14.541 18.417 24.666 24 24.666z" fill="#fff"/></svg><svg fill="none" viewBox="0 0 24 25" id="viber" xmlns="http://www.w3.org/2000/svg"><g clip-path="url(#vclip0)" fill="#fff"><path d="M21.102 3.245c-1.897-1.86-4.964-2.76-9.118-2.68-4.188.083-6.987.818-8.81 2.314C1.412 4.325.591 6.442.591 9.539v3.162c0 3.656 1.96 7.677 5.705 8.285a.792.792 0 10.254-1.566c-2.84-.461-4.373-3.806-4.373-6.72V9.54c0-4.442 1.646-7.228 9.838-7.389 3.714-.073 6.395.676 7.976 2.227 1.233 1.208 1.832 2.897 1.832 5.161v3.162c0 4.787-2.149 6.898-7.66 7.52h-3.908a.793.793 0 00-.56.232L6.94 23.207a.793.793 0 001.121 1.121l2.522-2.521h3.623c.03 0 .059-.002.088-.005 3.154-.35 5.314-1.171 6.797-2.583 1.559-1.485 2.317-3.617 2.317-6.519V9.54c0-2.676-.776-4.793-2.307-6.295z"/><path d="M12.495 5.741c1.278 0 2.48.498 3.383 1.402a4.753 4.753 0 011.401 3.383.793.793 0 001.586 0A6.329 6.329 0 0017 6.021a6.328 6.328 0 00-4.505-1.866.793.793 0 100 1.586z"/><path d="M12.495 8.53c1.1 0 1.996.895 1.996 1.995a.793.793 0 101.586 0 3.587 3.587 0 00-3.582-3.582.793.793 0 000 1.586zM8.939 9.89a.793.793 0 00.895 1.308c.284-.194.95-.65.904-1.56-.03-.544-.521-1.322-.928-1.879-.596-.814-1.109-1.304-1.522-1.457a1.757 1.757 0 00-1.2-.008c-.852.286-1.47.805-1.787 1.498-.31.675-.303 1.451.02 2.245.762 1.869 1.828 3.505 3.177 4.87 1.358 1.343 2.995 2.41 4.865 3.171.404.165.805.248 1.19.248.368 0 .723-.076 1.054-.228.693-.318 1.212-.935 1.498-1.788.138-.41.135-.813-.008-1.196-.153-.417-.643-.93-1.458-1.525-.556-.407-1.334-.898-1.881-.928-.908-.045-1.363.62-1.557.904a.793.793 0 001.309.895c.086-.126.135-.183.163-.208.446.142 1.715 1.075 1.944 1.432.005.023.006.058-.015.121-.1.297-.295.686-.656.852-.338.154-.723.06-.985-.047-1.676-.683-3.139-1.636-4.341-2.824-1.195-1.21-2.148-2.672-2.83-4.347-.107-.263-.202-.648-.047-.986.165-.36.554-.556.85-.656.063-.021.098-.02.122-.014.358.229 1.29 1.498 1.432 1.943a1.283 1.283 0 01-.208.163z"/></g><defs><clipPath id="vclip0"><path fill="#fff" transform="translate(0 .56)" d="M0 0h24v24H0z"/></clipPath></defs></svg><svg fill="none" viewBox="0 0 51 39" id="wave" xmlns="http://www.w3.org/2000/svg"><g clip-path="url(#wclip0)" fill="#4C65AD"><path d="M4.755 38.752a1.36 1.36 0 01-.602-.132 1.559 1.559 0 01-.513-.393 1.862 1.862 0 01-.343-.593 2.09 2.09 0 01-.12-.703c-.265-8.097 1.664-16.086 5.512-22.826C11.737 8.48 16.28 4.182 21.621 1.871c5.341-2.31 11.184-2.507 16.629-.557C45.635 3.774 51 9.58 51 14.917a5.336 5.336 0 01-.515 2.855c-.428.863-1.08 1.543-1.863 1.941-.932.3-1.913.33-2.858.09a5.696 5.696 0 01-2.57-1.467c-.391.75-.983 1.329-1.683 1.648a5.737 5.737 0 01-3.254.055c-1.072-.296-2.065-.898-2.89-1.752-.44.83-1.107 1.462-1.893 1.795-2.588 1.058-5.933-1.254-7.743-3.935-2.209-2.952-5.807-6.051-9.867-4.231-5.534 2.509-9.552 13.012-9.552 25.015a2.01 2.01 0 01-.462 1.28c-.291.34-.684.534-1.095.54zM18.683 7.685c1.839.21 3.623.847 5.25 1.873 1.625 1.026 3.06 2.422 4.218 4.104a5.666 5.666 0 001.804 2.024c.733.493 1.558.77 2.404.805.4-.172.463-1.058.463-1.574a2.1 2.1 0 01.271-1.036 1.68 1.68 0 01.717-.686c.291-.139.61-.173.918-.099.307.075.588.255.808.517 1.977 2.46 3.997 3.198 4.713 2.853.378-.172.42-1.23.42-1.55 0-.37.096-.732.275-1.039a1.65 1.65 0 01.727-.678c.295-.135.619-.164.928-.081.31.083.59.272.806.544 1.683 2.165 3.366 2.78 3.997 2.46.316-.148.358-.935.358-1.255 0-3.099-4.019-7.821-10.52-10.06a19.937 19.937 0 00-9.539-.852c-3.195.495-6.267 1.766-9.018 3.73z"/><path d="M12.918 38.753c-.415 0-.813-.19-1.108-.531a2.01 2.01 0 01-.47-1.289c.323-7.097 2.398-13.932 5.976-19.678.248-.356.6-.593.987-.666.388-.073.786.024 1.116.273.314.283.523.695.585 1.152a2.07 2.07 0 01-.248 1.307c-3.176 5.151-5.003 11.27-5.26 17.612a2.009 2.009 0 01-.47 1.289c-.295.34-.693.531-1.108.531zM29.203 38.753c-.416-.032-.806-.253-1.085-.616a2.068 2.068 0 01-.409-1.328c.337-4.026 1.442-7.912 3.234-11.373 1.791-3.46 4.223-6.408 7.118-8.624a1.5 1.5 0 01.587-.338c.214-.063.437-.073.654-.03.217.044.424.14.608.283.183.143.34.33.458.547.118.218.196.462.228.717.033.255.02.515-.04.763-.058.249-.161.48-.301.68-.14.198-.314.361-.511.477-2.482 1.918-4.566 4.459-6.102 7.437-1.536 2.979-2.485 6.32-2.777 9.781-.042.47-.24.902-.55 1.205-.31.303-.709.453-1.112.419zM21.355 38.753c-.415 0-.813-.19-1.108-.532a2.008 2.008 0 01-.47-1.288c.272-5.027 1.61-9.896 3.892-14.168.1-.226.24-.424.41-.584.168-.16.364-.276.573-.343.21-.067.43-.083.644-.046.216.036.422.125.606.259.185.134.344.311.467.52.123.21.208.447.25.696.04.25.037.506-.01.754a2.006 2.006 0 01-.268.687c-1.98 3.711-3.151 7.934-3.408 12.299a1.99 1.99 0 01-.49 1.241 1.464 1.464 0 01-1.088.505z"/><path d="M38.818 38.755H1.578c-.419 0-.82-.194-1.116-.54A2.016 2.016 0 010 36.909c0-.49.166-.959.462-1.305.296-.346.697-.54 1.116-.54h37.24c.419 0 .82.194 1.116.54.296.346.462.816.462 1.305 0 .49-.166.96-.462 1.306-.296.346-.697.54-1.116.54z"/></g><defs><clipPath id="wclip0"><path fill="#fff" transform="translate(0 .037)" d="M0 0h51v38.716H0z"/></clipPath></defs></svg><svg viewBox="0 0 23 23" id="whatsapp" xmlns="http://www.w3.org/2000/svg"><g clip-path="url(#xclip0)"><path d="M11.818.56C5.922.56 1.125 5.358 1.125 11.254c0 2.307.937 4.38 1.34 5.163a.743.743 0 001.321-.679c-.353-.688-1.175-2.5-1.175-4.484 0-5.077 4.13-9.207 9.207-9.207 5.077 0 9.207 4.13 9.207 9.207 0 5.077-4.13 9.207-9.207 9.207a9.544 9.544 0 01-4.15-.983.742.742 0 00-.56-.045l-4.68 1.496a.743.743 0 10.453 1.415l4.397-1.405c.92.427 2.539 1.008 4.54 1.008 5.896 0 10.693-4.797 10.693-10.693S17.714.561 11.818.561z"/><path d="M9.71 9.43a.743.743 0 00.905 1.178c.228-.175.832-.64.744-1.47-.055-.494-.537-1.172-.931-1.653-.578-.705-1.067-1.122-1.45-1.24a1.608 1.608 0 00-1.097.053c-.756.302-1.29.803-1.544 1.448-.247.628-.202 1.332.13 2.034.776 1.637 1.812 3.05 3.08 4.202l.015.013c1.287 1.138 2.809 2.014 4.525 2.605.325.112.645.167.952.167.385 0 .75-.088 1.083-.263.614-.323 1.052-.909 1.27-1.695.104-.381.08-.75-.069-1.092-.16-.371-.629-.81-1.393-1.307-.522-.339-1.248-.743-1.747-.743h-.001c-.833.003-1.228.656-1.377.902a.743.743 0 101.271.77c.059-.098.096-.15.12-.176.419.122 1.541.856 1.771 1.165a.177.177 0 01-.008.087c-.073.265-.224.614-.53.775-.285.15-.625.085-.86.005-1.526-.526-2.877-1.302-4.015-2.306h-.001c-1.127-1.022-2.05-2.281-2.743-3.744-.106-.225-.208-.555-.09-.855.126-.321.457-.51.712-.612a.174.174 0 01.086-.018c.332.195 1.185 1.229 1.353 1.632a1.39 1.39 0 01-.161.138z"/></g><defs><clipPath id="xclip0"><path transform="translate(.91 .56)" d="M0 0h21.818v21.818H0z"/></clipPath></defs></svg></svg>